<?xml version="1.0" encoding="utf-8"?>
<!-- Generator: Adobe Illustrator 25.2.3, SVG Export Plug-In . SVG Version: 6.00 Build 0)  -->
<svg version="1.1" id="Layer_1" xmlns="http://www.w3.org/2000/svg" xmlns:xlink="http://www.w3.org/1999/xlink" x="0px" y="0px"
	width="300px"
	height="300px"
	viewBox="0 0 473.4 113.05" style="enable-background:new 0 0 473.4 113.05;" xml:space="preserve">
<style type="text/css">
	.st0{fill:#452F69;}
	.st1{fill:#3D4E9D;}
	
</style>
<g>
	<g>
		<g>
			<g>
				<path class="st1" d="M369.79,29.32h-59.41c-5.11,0-9.28-4.18-9.28-9.28v0c0-5.11,4.18-9.28,9.28-9.28h59.41
					c5.11,0,9.28,4.18,9.28,9.28v0C379.07,25.14,374.89,29.32,369.79,29.32z"/>
			</g>
			<g>
				<path class="st1" d="M356.31,102.29h-59.41c-5.11,0-9.28-4.18-9.28-9.28v0c0-5.11,4.18-9.28,9.28-9.28h59.41
					c5.11,0,9.28,4.18,9.28,9.28v0C365.6,98.11,361.42,102.29,356.31,102.29z"/>
			</g>
			<g>
				<path class="st0" d="M380.7,71.32h-94.71c-8.14,0-14.8-6.66-14.8-14.8v0c0-8.14,6.66-14.8,14.8-14.8h94.71
					c8.14,0,14.8,6.66,14.8,14.8v0C395.5,64.66,388.84,71.32,380.7,71.32z"/>
			</g>
		</g>
	</g>
</g>
</svg>
