<?xml version="1.0" encoding="utf-8"?>
<!-- Generator: Adobe Illustrator 25.2.3, SVG Export Plug-In . SVG Version: 6.00 Build 0)  -->
<svg version="1.1" id="Camada_1" xmlns="http://www.w3.org/2000/svg" xmlns:xlink="http://www.w3.org/1999/xlink" x="0px" y="0px"
	 viewBox="0 0 473.4 113.05" style="enable-background:new 0 0 473.4 113.05;" xml:space="preserve">
<style type="text/css">
	.st0{fill:#452F69;}
	.st1{fill:#3D4E9D;}
</style>
<g>
	<g>
		<g>
			<path class="st0" d="M149.58,1.87l-49.81,109.3H77.6L69.8,33.26l-32.48,77.92H15.15L0,1.87h21.86l8.28,81.04L63.71,1.87H85.1
				l7.96,81.04l33.88-81.04H149.58z"/>
			<path class="st0" d="M152.55,45.59h19.05l-10.31,65.58h-19.05L152.55,45.59z M154.42,19.83c1.09-7.03,6.56-11.55,13.58-11.55
				c7.18,0,11.09,4.53,9.99,11.55c-1.09,7.03-6.4,11.55-13.43,11.55C157.39,31.38,153.33,26.86,154.42,19.83z"/>
			<path class="st1" d="M175.97,94.93l14.05-16.55c7.18,9.68,18.11,15.3,29.67,15.3c11.24,0,20.61-5,21.86-12.65
				c3.28-20.92-58.4-9.37-52.15-49.03C192.52,12.02,210.47,0,234.21,0c15.77,0,29.67,5.78,36.38,14.37l-13.9,16.55
				c-5-6.87-14.83-11.55-25.61-11.55c-11.24,0-19.52,4.68-20.61,11.71c-3.12,19.99,58.55,8.12,52.15,48.4
				c-3.28,20.77-21.86,33.57-46.06,33.57C199.08,113.05,183.3,105.86,175.97,94.93z"/>
			<path class="st1" d="M417.35,1.87h19.05l-17.33,109.3h-19.05L417.35,1.87z"/>
			<path class="st1" d="M454.35,1.87h19.05l-17.33,109.3h-19.05L454.35,1.87z"/>
		</g>
		<g>
			<g>
				<path class="st1" d="M369.79,29.32h-59.41c-5.11,0-9.28-4.18-9.28-9.28v0c0-5.11,4.18-9.28,9.28-9.28h59.41
					c5.11,0,9.28,4.18,9.28,9.28v0C379.07,25.14,374.89,29.32,369.79,29.32z"/>
			</g>
			<g>
				<path class="st1" d="M356.31,102.29h-59.41c-5.11,0-9.28-4.18-9.28-9.28v0c0-5.11,4.18-9.28,9.28-9.28h59.41
					c5.11,0,9.28,4.18,9.28,9.28v0C365.6,98.11,361.42,102.29,356.31,102.29z"/>
			</g>
			<g>
				<path class="st0" d="M380.7,71.32h-94.71c-8.14,0-14.8-6.66-14.8-14.8v0c0-8.14,6.66-14.8,14.8-14.8h94.71
					c8.14,0,14.8,6.66,14.8,14.8v0C395.5,64.66,388.84,71.32,380.7,71.32z"/>
			</g>
		</g>
	</g>
</g>
</svg>
